<?xml version="1.0" encoding="UTF-8" standalone="no"?><svg xmlns="http://www.w3.org/2000/svg" xmlns:xlink="http://www.w3.org/1999/xlink" contentScriptType="application/ecmascript" contentStyleType="text/css" height="90px" preserveAspectRatio="none" style="width:319px;height:90px;" version="1.1" viewBox="0 0 319 90" width="319px" zoomAndPan="magnify"><defs><filter height="300%" id="f1gl676xqk4sr" width="300%" x="-1" y="-1"><feGaussianBlur result="blurOut" stdDeviation="2.0"/><feColorMatrix in="blurOut" result="blurOut2" type="matrix" values="0 0 0 0 0 0 0 0 0 0 0 0 0 0 0 0 0 0 .4 0"/><feOffset dx="4.0" dy="4.0" in="blurOut2" result="blurOut3"/><feBlend in="SourceGraphic" in2="blurOut3" mode="normal"/></filter></defs><g><!--MD5=[e209b37fc91f378abaa2ddf468318055]
entity actor--><ellipse cx="201" cy="14" fill="#FEFECE" filter="url(#f1gl676xqk4sr)" rx="8" ry="8" style="stroke: #A80036; stroke-width: 1.5;"/><path d="M201,22 L201,49 M188,30 L214,30 M201,49 L188,64 M201,49 L214,64 " fill="none" filter="url(#f1gl676xqk4sr)" style="stroke: #A80036; stroke-width: 1.5;"/><text fill="#000000" font-family="sans-serif" font-size="14" lengthAdjust="spacingAndGlyphs" textLength="35" x="183.5" y="82.4951">actor</text><!--MD5=[f83ae91a690dfc657e1c5fbbd818f13d]
entity a--><polygon fill="#FEFECE" filter="url(#f1gl676xqk4sr)" points="16,32,26,22,64,22,64,58.2969,54,68.2969,16,68.2969,16,32" style="stroke: #000000; stroke-width: 1.5;"/><line style="stroke: #000000; stroke-width: 1.5;" x1="54" x2="64" y1="32" y2="22"/><line style="stroke: #000000; stroke-width: 1.5;" x1="16" x2="54" y1="32" y2="32"/><line style="stroke: #000000; stroke-width: 1.5;" x1="54" x2="54" y1="32" y2="68.2969"/><text fill="#000000" font-family="sans-serif" font-size="14" lengthAdjust="spacingAndGlyphs" textLength="8" x="31" y="54.9951">a</text><!--MD5=[5d12e840fb55afd9ed7b3559a638e8f7]
entity b--><polygon fill="#FEFECE" filter="url(#f1gl676xqk4sr)" points="99.5,32,109.5,22,148.5,22,148.5,58.2969,138.5,68.2969,99.5,68.2969,99.5,32" style="stroke: #000000; stroke-width: 1.5;"/><line style="stroke: #000000; stroke-width: 1.5;" x1="138.5" x2="148.5" y1="32" y2="22"/><line style="stroke: #000000; stroke-width: 1.5;" x1="99.5" x2="138.5" y1="32" y2="32"/><line style="stroke: #000000; stroke-width: 1.5;" x1="138.5" x2="138.5" y1="32" y2="68.2969"/><text fill="#000000" font-family="sans-serif" font-size="14" lengthAdjust="spacingAndGlyphs" textLength="9" x="114.5" y="54.9951">b</text><!--MD5=[011db1d27274c86691871bc51b12beb8]
entity d--><polygon fill="#FEFECE" filter="url(#f1gl676xqk4sr)" points="253.5,32,263.5,22,302.5,22,302.5,58.2969,292.5,68.2969,253.5,68.2969,253.5,32" style="stroke: #000000; stroke-width: 1.5;"/><line style="stroke: #000000; stroke-width: 1.5;" x1="292.5" x2="302.5" y1="32" y2="22"/><line style="stroke: #000000; stroke-width: 1.5;" x1="253.5" x2="292.5" y1="32" y2="32"/><line style="stroke: #000000; stroke-width: 1.5;" x1="292.5" x2="292.5" y1="32" y2="68.2969"/><text fill="#000000" font-family="sans-serif" font-size="14" lengthAdjust="spacingAndGlyphs" textLength="9" x="268.5" y="54.9951">d</text><!--MD5=[a3deb68e4aebbeb113ddd128f6b25b58]
link a to b--><path d="M64.2813,45 C74.2137,45 84.1462,45 94.0787,45 " fill="none" id="a-to-b" style="stroke: #A80036; stroke-width: 1.0;"/><polygon fill="#A80036" points="99.2727,45,90.2727,41,94.2727,45,90.2727,49,99.2727,45" style="stroke: #A80036; stroke-width: 1.0;"/><!--MD5=[8871c65b2efa8155e70ef4dc0dfbfc41]
link b to actor--><path d="M148.6641,45 C158.5292,45 168.3944,45 178.2595,45 " fill="none" id="b-to-actor" style="stroke: #A80036; stroke-width: 1.0;"/><polygon fill="#A80036" points="183.4184,45,174.4184,41,178.4184,45,174.4184,49,183.4184,45" style="stroke: #A80036; stroke-width: 1.0;"/><!--MD5=[c1794bfb97a5dffd1b4435d6de2bef46]
link actor to d--><path d="M218.7461,45 C228.6013,45 238.4564,45 248.3116,45 " fill="none" id="actor-to-d" style="stroke: #A80036; stroke-width: 1.0;"/><polygon fill="#A80036" points="253.4652,45,244.4652,41,248.4652,45,244.4652,49,253.4652,45" style="stroke: #A80036; stroke-width: 1.0;"/><!--MD5=[75ee49f263b2eac0ca48392f5a8c3314]
@startuml
actor actor
node a
node b
node d

a -> b
b -> actor
actor -> d
@enduml

PlantUML version 1.2020.19(Mon Oct 12 15:10:01 UTC 2020)
(GPL source distribution)
Java Runtime: OpenJDK Runtime Environment
JVM: OpenJDK 64-Bit Server VM
Default Encoding: UTF-8
Language: en
Country: null
--></g></svg>