<?xml version="1.0" encoding="UTF-8" standalone="no"?><svg xmlns="http://www.w3.org/2000/svg" xmlns:xlink="http://www.w3.org/1999/xlink" contentScriptType="application/ecmascript" contentStyleType="text/css" height="90px" preserveAspectRatio="none" style="width:387px;height:90px;" version="1.1" viewBox="0 0 387 90" width="387px" zoomAndPan="magnify"><defs><filter height="300%" id="fnjd7by8lp7k1" width="300%" x="-1" y="-1"><feGaussianBlur result="blurOut" stdDeviation="2.0"/><feColorMatrix in="blurOut" result="blurOut2" type="matrix" values="0 0 0 0 0 0 0 0 0 0 0 0 0 0 0 0 0 0 .4 0"/><feOffset dx="4.0" dy="4.0" in="blurOut2" result="blurOut3"/><feBlend in="SourceGraphic" in2="blurOut3" mode="normal"/></filter></defs><g><!--MD5=[e209b37fc91f378abaa2ddf468318055]
entity actor--><ellipse cx="363" cy="14" fill="#FEFECE" filter="url(#fnjd7by8lp7k1)" rx="8" ry="8" style="stroke: #A80036; stroke-width: 1.5;"/><path d="M363,22 L363,49 M350,30 L376,30 M363,49 L350,64 M363,49 L376,64 " fill="none" filter="url(#fnjd7by8lp7k1)" style="stroke: #A80036; stroke-width: 1.5;"/><text fill="#000000" font-family="sans-serif" font-size="14" lengthAdjust="spacingAndGlyphs" textLength="35" x="345.5" y="82.4951">actor</text><!--MD5=[f83ae91a690dfc657e1c5fbbd818f13d]
entity a--><polygon fill="#FEFECE" filter="url(#fnjd7by8lp7k1)" points="16,32,26,22,64,22,64,58.2969,54,68.2969,16,68.2969,16,32" style="stroke: #000000; stroke-width: 1.5;"/><line style="stroke: #000000; stroke-width: 1.5;" x1="54" x2="64" y1="32" y2="22"/><line style="stroke: #000000; stroke-width: 1.5;" x1="16" x2="54" y1="32" y2="32"/><line style="stroke: #000000; stroke-width: 1.5;" x1="54" x2="54" y1="32" y2="68.2969"/><text fill="#000000" font-family="sans-serif" font-size="14" lengthAdjust="spacingAndGlyphs" textLength="8" x="31" y="54.9951">a</text><!--MD5=[5d12e840fb55afd9ed7b3559a638e8f7]
entity b--><polygon fill="#FEFECE" filter="url(#fnjd7by8lp7k1)" points="99.5,32,109.5,22,148.5,22,148.5,58.2969,138.5,68.2969,99.5,68.2969,99.5,32" style="stroke: #000000; stroke-width: 1.5;"/><line style="stroke: #000000; stroke-width: 1.5;" x1="138.5" x2="148.5" y1="32" y2="22"/><line style="stroke: #000000; stroke-width: 1.5;" x1="99.5" x2="138.5" y1="32" y2="32"/><line style="stroke: #000000; stroke-width: 1.5;" x1="138.5" x2="138.5" y1="32" y2="68.2969"/><text fill="#000000" font-family="sans-serif" font-size="14" lengthAdjust="spacingAndGlyphs" textLength="9" x="114.5" y="54.9951">b</text><!--MD5=[011db1d27274c86691871bc51b12beb8]
entity d--><polygon fill="#FEFECE" filter="url(#fnjd7by8lp7k1)" points="261.5,32,271.5,22,310.5,22,310.5,58.2969,300.5,68.2969,261.5,68.2969,261.5,32" style="stroke: #000000; stroke-width: 1.5;"/><line style="stroke: #000000; stroke-width: 1.5;" x1="300.5" x2="310.5" y1="32" y2="22"/><line style="stroke: #000000; stroke-width: 1.5;" x1="261.5" x2="300.5" y1="32" y2="32"/><line style="stroke: #000000; stroke-width: 1.5;" x1="300.5" x2="300.5" y1="32" y2="68.2969"/><text fill="#000000" font-family="sans-serif" font-size="14" lengthAdjust="spacingAndGlyphs" textLength="9" x="276.5" y="54.9951">d</text><!--MD5=[d502dec9145b193b8e5e7c7a72b70b86]
entity actors--><ellipse cx="205" cy="14" fill="#FEFECE" filter="url(#fnjd7by8lp7k1)" rx="8" ry="8" style="stroke: #A80036; stroke-width: 1.5;"/><path d="M205,22 L205,49 M192,30 L218,30 M205,49 L192,64 M205,49 L218,64 " fill="none" filter="url(#fnjd7by8lp7k1)" style="stroke: #A80036; stroke-width: 1.5;"/><text fill="#000000" font-family="sans-serif" font-size="14" lengthAdjust="spacingAndGlyphs" textLength="43" x="183.5" y="82.4951">actors</text><!--MD5=[a3deb68e4aebbeb113ddd128f6b25b58]
link a to b--><path d="M64.2813,45 C74.2137,45 84.1462,45 94.0787,45 " fill="none" id="a-to-b" style="stroke: #A80036; stroke-width: 1.0;"/><polygon fill="#A80036" points="99.2727,45,90.2727,41,94.2727,45,90.2727,49,99.2727,45" style="stroke: #A80036; stroke-width: 1.0;"/><!--MD5=[12266902c374bb1bc8b4258ebe54c73d]
link b to actors--><path d="M148.6797,45 C158.5465,45 168.4133,45 178.2802,45 " fill="none" id="b-to-actors" style="stroke: #A80036; stroke-width: 1.0;"/><polygon fill="#A80036" points="183.4399,45,174.4399,41,178.4399,45,174.4399,49,183.4399,45" style="stroke: #A80036; stroke-width: 1.0;"/><!--MD5=[1d811a779af43e0af96ffecf9ef493aa]
link actors to d--><path d="M226.5156,45 C236.4091,45 246.3026,45 256.1961,45 " fill="none" id="actors-to-d" style="stroke: #A80036; stroke-width: 1.0;"/><polygon fill="#A80036" points="261.3698,45,252.3698,41,256.3698,45,252.3698,49,261.3698,45" style="stroke: #A80036; stroke-width: 1.0;"/><!--MD5=[3d391de6298b478b573b71daf059fefd]
@startuml
actor actor
node a
node b
node d

a -> b
b -> actors
actors -> d
@enduml

PlantUML version 1.2020.19(Mon Oct 12 15:10:01 UTC 2020)
(GPL source distribution)
Java Runtime: OpenJDK Runtime Environment
JVM: OpenJDK 64-Bit Server VM
Default Encoding: UTF-8
Language: en
Country: null
--></g></svg>